<svg width="151" height="32" viewBox="0 0 151 32" fill="none" xmlns="http://www.w3.org/2000/svg">
<path d="M35.5312 7.96497C35.5234 8.06262 35.5234 8.16418 35.5156 8.25403V8.26575C35.4336 9.61731 35.0703 10.9025 34.4766 12.047C34.0391 12.0861 33.1055 12.1876 32.7773 12.3517C32.3477 12.547 31.9609 12.8282 31.6289 13.1876C31.293 13.5626 31.0352 14.0001 30.8438 14.4767C30.668 14.965 30.5703 15.4845 30.5703 16.0157V23.84C30.0352 23.9689 29.4805 24.0509 28.9062 24.0861C28.7852 24.09 28.668 24.0939 28.543 24.0939H28.1367C27.5977 24.0861 27.0625 24.0275 26.5469 23.9298V8.61731C27.6992 7.94153 29.0117 7.49622 30.4062 7.35559H30.5703V8.88293C30.5703 8.88293 32.2773 7.88293 34.7422 7.91809C34.8945 7.9259 35.0508 7.92981 35.2109 7.94153C35.3164 7.94543 35.4219 7.95325 35.5312 7.96497Z" fill="white"/>
<path d="M81.5312 1.78137V5.00403C81.4961 5.00403 81.4648 5.00793 81.4336 5.00793C80.0117 5.10559 78.6719 5.50403 77.4922 6.15637V2.922C78.668 2.28137 80 1.87903 81.4141 1.78918C81.4492 1.78137 81.4922 1.78137 81.5312 1.78137Z" fill="white"/>
<path d="M81.5312 7.36731V23.7618C81.4922 23.7736 81.4492 23.7814 81.4141 23.7892C80.7773 23.9298 80.1133 23.9962 79.4336 23.9962C78.7695 23.9962 78.1211 23.9337 77.5 23.797L77.4922 8.56653C78.6992 7.88684 80.0703 7.46497 81.5312 7.36731Z" fill="white"/>
<path d="M99.7969 14.0196V23.8048C99.1797 23.9337 98.5352 24.0001 97.8789 24.0001C97.1523 24.0001 96.4453 23.9181 95.7695 23.7618V15.9102C95.7695 15.8556 95.7695 15.8009 95.7617 15.7501C95.7422 15.2618 95.6484 14.8009 95.4805 14.3595C95.3047 13.8829 95.043 13.4493 94.707 13.0821C94.375 12.7227 94 12.4337 93.5664 12.2345C93.1211 12.0196 92.6523 11.9102 92.168 11.9102C91.6992 11.9102 91.2617 12.0118 90.8281 12.2071C90.8125 12.2188 90.7852 12.2227 90.7656 12.2345C90.3398 12.4337 89.957 12.7227 89.6172 13.0821C89.293 13.4493 89.0273 13.8829 88.8438 14.3595C88.6836 14.8009 88.582 15.2618 88.5703 15.7501C88.5664 15.8009 88.5664 15.8556 88.5664 15.9102V23.7892C87.9297 23.9298 87.2656 24.0001 86.5859 24.0001C85.8789 24.0001 85.1953 23.922 84.5352 23.7735V8.51572C86.5156 7.29697 88.1133 7.33603 88.5664 7.38681V9.26962C89.2188 8.76962 89.9609 8.37119 90.7695 8.11728C91.2461 7.96494 91.7422 7.86337 92.25 7.8165C92.4531 7.80087 92.6602 7.78915 92.8828 7.78915C93.0586 7.78915 93.2305 7.79306 93.4023 7.81259C94.2383 7.87119 95.0391 8.07822 95.7695 8.40634C97.7969 9.31259 99.6758 11.3751 99.7969 14.0196Z" fill="white"/>
<path d="M76.0469 7.8009L73.1797 15.9845L70.4102 23.8751L70.3594 24.0197C70.3164 24.0314 70.2813 24.0353 70.2383 24.0431C69.5703 24.1681 68.8945 24.2345 68.2109 24.2345C68.0078 24.2345 67.8047 24.2267 67.6055 24.2111C67.1406 24.1837 66.6797 24.1212 66.2305 24.0197L65.5195 21.5665L64.4336 17.8048L63.6836 15.215L63.2305 16.7892L61.5703 22.4806L61.1445 23.9493C60.8164 24.0197 60.4922 24.0704 60.1641 24.0978C59.7773 24.1407 59.4023 24.1642 59.0273 24.1642C58.3906 24.1642 57.7617 24.1056 57.1523 24.0001C57.1172 23.9923 57.082 23.9884 57.0469 23.9845L57.0039 23.8634L54.2812 15.7072L51.6367 7.78918C52.3008 7.64075 52.9922 7.56653 53.7031 7.56653C54.4688 7.56653 55.207 7.65637 55.918 7.82825L56.7773 10.5587L59.0625 17.7892L60.8516 10.7892L61.6133 7.8009C62.2891 7.64465 62.9883 7.56653 63.7109 7.56653C64.4102 7.56653 65.0977 7.64075 65.7539 7.78918L66.5781 11.047L68.2812 17.7892L70.6562 10.5782L71.5469 7.87122C72.3125 7.672 73.1094 7.56653 73.9336 7.56653C74.6602 7.56653 75.3672 7.64465 76.0469 7.8009Z" fill="white"/>
<path d="M124.867 0.0157385V23.7306C124.828 23.7423 124.797 23.7501 124.758 23.7579C124.121 23.8986 123.457 23.965 122.777 23.965C122.109 23.965 121.465 23.9025 120.844 23.7618V1.18761C122.785 -0.0350424 124.363 -0.0350425 124.867 0.0157385Z" fill="#FF671B"/>
<path d="M43.7461 19.7697C41.5117 19.7697 39.6992 17.9572 39.6992 15.7189C39.6992 13.4923 41.5117 11.6759 43.7461 11.6759C45.9844 11.6759 47.793 13.4923 47.793 15.7189C47.793 17.9572 45.9844 19.7697 43.7461 19.7697ZM43.7461 7.39465C39.1484 7.39465 35.418 11.1251 35.418 15.7189C35.418 20.3204 39.1484 24.0509 43.7461 24.0509C48.3437 24.0509 52.0703 20.3204 52.0703 15.7189C52.0703 11.1251 48.3437 7.39465 43.7461 7.39465Z" fill="white"/>
<path d="M25.0898 12.2306C25.0898 17.6329 21.3711 22.2072 16.2617 23.7267C15.0859 24.0743 13.8398 24.2618 12.543 24.2618C5.61719 24.2618 0 18.8751 0 12.2306C0 12.0743 0.00390575 11.9181 0.0117188 11.7657C0.261719 5.33215 5.77734 0.199341 12.543 0.199341C15.4531 0.199341 18.1289 1.14465 20.2539 2.7384L20.2852 2.70715C20.7227 3.02747 21.1406 3.38293 21.5312 3.76184C20.2148 4.8595 18.6055 5.60559 16.8281 5.87122L16.8477 5.85168C15.6094 5.08215 14.1328 4.63293 12.543 4.63293C8.33594 4.63293 4.89062 7.78528 4.63672 11.7657C4.625 11.9181 4.62109 12.0743 4.62109 12.2306C4.62109 16.4298 8.16797 19.8322 12.543 19.8322C12.9141 19.8322 13.2773 19.8048 13.6367 19.7618C16.207 19.4181 18.3867 17.8947 19.5469 15.7814H13.1484C13.2813 14.3204 13.7422 12.9572 14.4609 11.7657H25.0781C25.082 11.9181 25.0898 12.0743 25.0898 12.2306Z" fill="white"/>
<path d="M109.02 20.2931C106.879 20.2931 105.141 18.5626 105.141 16.422C105.141 14.2814 106.879 12.547 109.02 12.547C111.16 12.547 112.895 14.2814 112.895 16.422C112.895 18.5626 111.16 20.2931 109.02 20.2931ZM113.406 8.56262V9.37512C112.188 8.64856 110.766 8.23059 109.246 8.23059C104.75 8.23059 101.109 11.8751 101.109 16.3673C101.109 20.8634 104.75 24.504 109.246 24.504C110.77 24.504 112.199 24.0822 113.418 23.3556V24.2853C113.422 24.3126 113.422 24.3439 113.422 24.3712C113.422 24.4142 113.422 24.4572 113.418 24.4923C113.363 26.0392 112.297 27.3243 110.871 27.715C110.578 27.8009 110.266 27.8439 109.945 27.8439C109.074 27.8439 108.266 27.5197 107.656 26.9767C107.652 26.9806 107.652 26.9806 107.652 26.9767C107.492 26.9689 107.324 26.965 107.164 26.965C106.992 26.965 106.828 26.9689 106.656 26.9806C106.617 26.9806 106.574 26.9806 106.539 26.9884C105.527 27.0509 104.555 27.2775 103.648 27.6407C104.852 30.004 107.309 31.6212 110.148 31.6212C111.723 31.6212 113.188 31.1212 114.379 30.2697C116.055 29.0782 117.211 27.1915 117.418 25.0275C117.434 24.8595 117.445 24.6876 117.445 24.5079V7.36731C115.988 7.46106 114.617 7.88294 113.406 8.56262Z" fill="white"/>
<path d="M138.754 19.3439C134.734 19.3439 131.473 16.0861 131.473 12.0626C131.473 8.04309 134.734 4.77747 138.754 4.77747C142.773 4.77747 146.039 8.04309 146.039 12.0626C146.039 16.0861 142.773 19.3439 138.754 19.3439ZM138.754 0.156372C132.18 0.156372 126.844 5.4845 126.844 12.0626C126.844 18.6368 132.18 23.9728 138.754 23.9728C145.332 23.9728 150.664 18.6368 150.664 12.0626C150.664 5.4845 145.332 0.156372 138.754 0.156372Z" fill="#FF671B"/>
</svg>
