<svg width="143" height="30" viewBox="0 0 143 30" fill="none" xmlns="http://www.w3.org/2000/svg">
<path d="M33.5625 7.52783C33.5547 7.61768 33.5547 7.71143 33.5469 7.79736V7.80908C33.4727 9.08643 33.1289 10.3013 32.5664 11.3794C32.1523 11.4185 31.2734 11.5122 30.9609 11.6685C30.5547 11.8521 30.1914 12.1177 29.8789 12.4575C29.5586 12.813 29.3164 13.2271 29.1367 13.6763C28.9687 14.1333 28.8789 14.6255 28.8789 15.1294V22.52C28.3711 22.645 27.8477 22.7192 27.3047 22.7505C27.1914 22.7544 27.0781 22.7583 26.9609 22.7583H26.5781C26.0703 22.7505 25.5625 22.6958 25.0781 22.606V8.14111C26.1641 7.50049 27.4023 7.08252 28.7227 6.94971H28.8789V8.39111C28.8789 8.39111 30.4883 7.4458 32.8203 7.48096C32.9609 7.48486 33.1055 7.48877 33.2578 7.50049C33.3594 7.50439 33.4609 7.51611 33.5625 7.52783Z" fill="#161C3A"/>
<path d="M77.0117 1.68408V4.72705C76.9844 4.72705 76.9531 4.73096 76.9219 4.73096C75.5781 4.82471 74.3164 5.20361 73.1953 5.81689V2.76221C74.3086 2.15674 75.5664 1.77393 76.9023 1.68799C76.9375 1.68408 76.9766 1.68408 77.0117 1.68408Z" fill="#161C3A"/>
<path d="M77.0117 6.96143V22.4458C76.9766 22.4575 76.9375 22.4614 76.9023 22.4731C76.2969 22.606 75.6719 22.6685 75.0312 22.6685C74.4062 22.6685 73.793 22.6099 73.207 22.4771L73.1953 8.09033C74.3398 7.44971 75.6328 7.05127 77.0117 6.96143Z" fill="#161C3A"/>
<path d="M94.2695 13.2466V22.4888C93.6836 22.6099 93.0742 22.6685 92.4531 22.6685C91.7656 22.6685 91.1016 22.5942 90.4648 22.4497V15.0317C90.4648 14.9771 90.4648 14.9302 90.4531 14.8794C90.4375 14.4185 90.3477 13.9849 90.1914 13.563C90.0234 13.1138 89.7773 12.7036 89.457 12.356C89.1445 12.0161 88.7891 11.7466 88.3789 11.5591C87.9609 11.356 87.5156 11.2505 87.0625 11.2505C86.6172 11.2505 86.2031 11.3442 85.793 11.5317C85.7812 11.5435 85.7539 11.5474 85.7344 11.5591C85.332 11.7466 84.9727 12.0161 84.6523 12.356C84.3437 12.7036 84.0898 13.1138 83.918 13.563C83.7695 13.9849 83.6719 14.4185 83.6602 14.8794C83.6563 14.9302 83.6562 14.9771 83.6562 15.0317V22.4732C83.0547 22.6021 82.4297 22.6685 81.7852 22.6685C81.1211 22.6685 80.4727 22.5982 79.8516 22.4575V8.04737C81.7227 6.89503 83.2305 6.93019 83.6562 6.98097V8.75831C84.2734 8.28565 84.9766 7.91065 85.7383 7.66847C86.1875 7.52784 86.6562 7.43018 87.1406 7.38331C87.332 7.37159 87.5273 7.35987 87.7344 7.35987C87.9023 7.35987 88.0625 7.36378 88.2227 7.3794C89.0195 7.43409 89.7695 7.63331 90.4648 7.938C92.3789 8.80128 94.1523 10.7466 94.2695 13.2466Z" fill="#161C3A"/>
<path d="M71.832 7.36768L69.125 15.1021L66.5078 22.5552L66.4609 22.6919C66.4219 22.6997 66.3867 22.7036 66.3477 22.7114C65.7148 22.8325 65.0781 22.8911 64.4297 22.8911C64.2383 22.8911 64.0469 22.8872 63.8594 22.8716C63.418 22.8481 62.9844 22.7856 62.5625 22.6919L61.8906 20.3716L60.8633 16.8169L60.1562 14.3716L59.7266 15.8599L58.1602 21.2349L57.7539 22.6255C57.4453 22.6919 57.1406 22.7349 56.832 22.7661C56.4648 22.8052 56.1094 22.8247 55.7539 22.8247C55.1523 22.8247 54.5625 22.77 53.9844 22.6685C53.9492 22.6646 53.9219 22.6606 53.8867 22.6528L53.8438 22.5435L51.2734 14.8364L48.7773 7.35986C49.4023 7.21924 50.0547 7.14893 50.7266 7.14893C51.4492 7.14893 52.1445 7.23486 52.8203 7.39502L53.6328 9.97705L55.7891 16.8052L57.4766 10.1958L58.1992 7.36768C58.8359 7.22314 59.5 7.14893 60.1797 7.14893C60.8438 7.14893 61.4883 7.21924 62.1094 7.35986L62.8906 10.438L64.4961 16.8052L66.7383 9.99268L67.582 7.43408C68.3086 7.24658 69.0586 7.14893 69.8359 7.14893C70.5234 7.14893 71.1914 7.22314 71.832 7.36768Z" fill="#161C3A"/>
<path d="M117.945 0.0160721V22.4184C117.91 22.4262 117.879 22.4379 117.844 22.4419C117.242 22.5747 116.617 22.6411 115.977 22.6411C115.344 22.6411 114.734 22.5786 114.145 22.4458V1.12154C115.98 -0.0347091 117.473 -0.0347089 117.945 0.0160721Z" fill="#FF671B"/>
<path d="M41.3242 18.6763C39.2109 18.6763 37.4961 16.9614 37.4961 14.8521C37.4961 12.7427 39.2109 11.0317 41.3242 11.0317C43.4336 11.0317 45.1445 12.7427 45.1445 14.8521C45.1445 16.9614 43.4336 18.6763 41.3242 18.6763ZM41.3242 6.98877C36.9766 6.98877 33.457 10.5083 33.457 14.8521C33.457 19.1958 36.9766 22.7192 41.3242 22.7192C45.6641 22.7192 49.1836 19.1958 49.1836 14.8521C49.1836 10.5083 45.6641 6.98877 41.3242 6.98877Z" fill="#161C3A"/>
<path d="M23.6992 11.5513C23.6992 16.6567 20.1875 20.9771 15.3594 22.4106C14.25 22.7427 13.0703 22.9185 11.8477 22.9185C5.30469 22.9185 0 17.8286 0 11.5513C0 11.4067 0.00390575 11.2583 0.0117188 11.1138C0.246094 5.03955 5.45703 0.187988 11.8477 0.187988C14.5977 0.187988 17.125 1.08252 19.1289 2.59033L19.1602 2.55908C19.5742 2.86377 19.9687 3.1958 20.3398 3.55518C19.0937 4.59033 17.5742 5.29736 15.8945 5.54346L15.9102 5.53174C14.7461 4.80127 13.3516 4.37939 11.8477 4.37939C7.87109 4.37939 4.61719 7.35205 4.37891 11.1138C4.37109 11.2583 4.36719 11.4067 4.36719 11.5513C4.36719 15.52 7.71484 18.7349 11.8477 18.7349C12.1992 18.7349 12.543 18.7075 12.8789 18.6685C15.3086 18.3442 17.3672 16.9028 18.4648 14.9067H12.4219C12.5469 13.5278 12.9805 12.2388 13.6562 11.1138H23.6875C23.6914 11.2583 23.6992 11.4067 23.6992 11.5513Z" fill="#161C3A"/>
<path d="M102.98 19.1724C100.957 19.1724 99.3164 17.5356 99.3164 15.5122C99.3164 13.4927 100.957 11.856 102.98 11.856C105 11.856 106.637 13.4927 106.637 15.5122C106.637 17.5356 105 19.1724 102.98 19.1724ZM107.121 8.09033V8.85986C105.973 8.17236 104.625 7.77783 103.191 7.77783C98.9453 7.77783 95.5039 11.2192 95.5039 15.4614C95.5039 19.7075 98.9453 23.1489 103.191 23.1489C104.629 23.1489 105.98 22.7505 107.133 22.063V22.9419C107.141 22.9653 107.141 22.9966 107.141 23.0239C107.141 23.063 107.141 23.1021 107.133 23.1372C107.082 24.5981 106.078 25.813 104.727 26.1802C104.449 26.2583 104.156 26.3013 103.852 26.3013C103.031 26.3013 102.266 25.9966 101.691 25.4849C101.688 25.4888 101.688 25.4888 101.688 25.4849C101.535 25.4771 101.379 25.4731 101.227 25.4731C101.063 25.4731 100.906 25.4771 100.746 25.4888C100.711 25.4888 100.672 25.4888 100.633 25.4927C99.6797 25.5513 98.7617 25.7661 97.9062 26.1099C99.043 28.3403 101.363 29.8677 104.047 29.8677C105.531 29.8677 106.914 29.3989 108.043 28.5942C109.625 27.4692 110.715 25.6841 110.914 23.645C110.93 23.481 110.938 23.3208 110.938 23.1528V6.95752C109.559 7.04736 108.266 7.44971 107.121 8.09033Z" fill="#161C3A"/>
<path d="M131.062 18.2739C127.27 18.2739 124.188 15.1958 124.188 11.395C124.188 7.59814 127.27 4.51611 131.062 4.51611C134.863 4.51611 137.945 7.59814 137.945 11.395C137.945 15.1958 134.863 18.2739 131.062 18.2739ZM131.062 0.148926C124.855 0.148926 119.816 5.18018 119.816 11.395C119.816 17.606 124.855 22.645 131.062 22.645C137.277 22.645 142.316 17.606 142.316 11.395C142.316 5.18018 137.277 0.148926 131.062 0.148926Z" fill="#FF671B"/>
</svg>
