<?xml version="1.0" standalone="no"?>
<!DOCTYPE svg PUBLIC "-//W3C//DTD SVG 20010904//EN"
 "http://www.w3.org/TR/2001/REC-SVG-20010904/DTD/svg10.dtd">
<svg version="1.0" xmlns="http://www.w3.org/2000/svg"
 width="544.000000pt" height="544.000000pt" viewBox="0 0 544.000000 544.000000"
 preserveAspectRatio="xMidYMid meet">
<metadata>
Created by potrace 1.14, written by Peter Selinger 2001-2017
</metadata>
<g transform="translate(0.000000,544.000000) scale(0.100000,-0.100000)"
fill="#000000" stroke="none">
<path d="M2501 5301 c-13 -23 4 -50 28 -44 23 6 32 25 21 43 -12 20 -39 21
-49 1z"/>
<path d="M2804 5305 c-9 -23 3 -45 25 -45 10 0 21 7 25 15 8 23 -4 45 -25 45
-11 0 -22 -7 -25 -15z"/>
<path d="M3096 5274 c-9 -22 17 -49 39 -40 10 3 15 15 13 28 -4 29 -42 37 -52
12z"/>
<path d="M2202 5268 c-14 -14 2 -48 22 -48 20 0 37 25 30 44 -7 19 -35 21 -52
4z"/>
<path d="M3390 5230 c-8 -5 -10 -17 -6 -34 7 -29 14 -32 40 -13 29 21 -2 67
-34 47z"/>
<path d="M1922 5208 c-17 -17 -15 -36 6 -47 20 -11 42 3 42 26 0 19 -35 34
-48 21z"/>
<path d="M2766 5157 c-26 -19 -17 -51 17 -55 31 -4 47 20 30 46 -13 22 -26 24
-47 9z"/>
<path d="M2482 5148 c-16 -16 -15 -33 3 -48 21 -18 55 -3 55 25 0 32 -35 46
-58 23z"/>
<path d="M3043 5142 c-22 -14 -19 -57 3 -66 25 -10 56 22 44 44 -11 21 -33 31
-47 22z"/>
<path d="M3662 5141 c-19 -12 -11 -45 12 -49 25 -5 39 12 31 37 -7 22 -21 26
-43 12z"/>
<path d="M2212 5116 c-20 -26 -21 -35 -7 -49 27 -28 73 1 59 37 -7 19 -41 27
-52 12z"/>
<path d="M1641 5107 c-16 -21 10 -51 36 -43 21 7 24 20 10 44 -11 16 -32 15
-46 -1z"/>
<path d="M3297 5084 c-13 -14 -7 -43 12 -53 24 -13 51 7 47 34 -3 20 -44 33
-59 19z"/>
<path d="M1942 5051 c-18 -11 -12 -41 10 -55 24 -15 53 13 43 43 -7 22 -30 27
-53 12z"/>
<path d="M3922 5031 c-20 -12 -10 -46 14 -49 25 -4 40 24 23 44 -13 16 -19 17
-37 5z"/>
<path d="M3549 5004 c-15 -19 -2 -47 26 -52 25 -5 38 13 31 42 -7 30 -36 35
-57 10z"/>
<path d="M2465 4996 c-21 -15 -17 -55 7 -70 27 -16 64 23 49 52 -14 26 -35 33
-56 18z"/>
<path d="M2710 4991 c-22 -42 27 -79 60 -45 13 14 16 25 9 42 -11 28 -54 30
-69 3z"/>
<path d="M1382 4988 c-15 -15 3 -48 28 -48 22 0 31 19 18 43 -10 20 -29 22
-46 5z"/>
<path d="M2973 4992 c-21 -15 -22 -43 -2 -63 18 -18 23 -19 42 -6 15 10 21 23
19 38 -2 13 -5 25 -7 27 -6 7 -43 10 -52 4z"/>
<path d="M1684 4955 c-14 -37 26 -69 53 -42 22 22 8 57 -23 57 -14 0 -27 -7
-30 -15z"/>
<path d="M2214 4962 c-32 -21 -18 -72 21 -72 26 0 45 26 37 50 -6 17 -22 30
-37 30 -5 0 -15 -4 -21 -8z"/>
<path d="M3212 4944 c-14 -16 -16 -50 -2 -59 25 -15 50 -13 61 6 10 19 4 58
-9 60 -4 0 -14 2 -22 4 -8 1 -21 -3 -28 -11z"/>
<path d="M3792 4908 c-26 -26 1 -65 38 -53 16 5 20 14 18 33 -3 30 -35 41 -56
20z"/>
<path d="M1966 4894 c-19 -19 -20 -25 -3 -49 10 -13 21 -16 39 -12 33 9 41 29
22 56 -18 25 -37 27 -58 5z"/>
<path d="M4154 4885 c-4 -9 0 -23 9 -32 21 -21 49 -9 45 19 -4 28 -45 38 -54
13z"/>
<path d="M3446 4874 c-19 -19 -20 -25 -3 -49 10 -13 21 -16 39 -12 32 8 42 41
19 61 -22 20 -35 20 -55 0z"/>
<path d="M1450 4845 c-18 -21 -3 -55 25 -55 15 0 26 7 30 20 7 23 -10 50 -30
50 -7 0 -18 -7 -25 -15z"/>
<path d="M2667 4839 c-28 -39 5 -79 52 -64 26 8 34 45 14 67 -21 24 -49 23
-66 -3z"/>
<path d="M1136 4833 c-8 -21 17 -48 38 -40 9 4 16 18 16 32 0 20 -5 25 -24 25
-13 0 -27 -8 -30 -17z"/>
<path d="M2440 4832 c-26 -21 -21 -55 9 -72 40 -21 81 46 49 78 -17 17 -32 15
-58 -6z"/>
<path d="M2896 4829 c-23 -34 -3 -69 41 -69 26 0 46 31 36 57 -14 38 -54 44
-77 12z"/>
<path d="M1748 4823 c-34 -8 -33 -67 1 -76 27 -7 51 11 51 38 0 26 -25 44 -52
38z"/>
<path d="M3132 4804 c-27 -19 -28 -45 -3 -68 15 -14 23 -15 45 -5 31 14 35 48
8 72 -23 21 -22 21 -50 1z"/>
<path d="M2201 4792 c-6 -10 -8 -28 -5 -40 6 -21 47 -38 65 -26 17 10 27 48
17 67 -12 23 -64 23 -77 -1z"/>
<path d="M3662 4784 c-20 -36 13 -73 51 -58 39 14 24 74 -18 74 -13 0 -28 -7
-33 -16z"/>
<path d="M4020 4785 c-19 -23 -8 -50 22 -53 19 -2 28 2 33 18 12 39 -29 66
-55 35z"/>
<path d="M1997 4747 c-22 -18 -27 -43 -12 -64 28 -40 93 -6 76 40 -10 26 -44
39 -64 24z"/>
<path d="M3342 4752 c-19 -13 -22 -50 -5 -67 20 -21 52 -16 69 10 25 38 -24
82 -64 57z"/>
<path d="M4387 4734 c-14 -15 -6 -43 14 -49 23 -8 41 9 36 35 -2 16 -38 26
-50 14z"/>
<path d="M1221 4702 c-6 -12 -5 -23 4 -35 15 -21 29 -22 49 -1 12 12 13 20 6
35 -13 24 -46 25 -59 1z"/>
<path d="M1522 4711 c-32 -20 -17 -71 22 -71 32 0 48 32 30 59 -16 22 -31 26
-52 12z"/>
<path d="M2627 4695 c-40 -29 -3 -100 44 -88 29 8 44 45 30 72 -7 11 -15 21
-19 22 -4 0 -14 2 -23 4 -8 1 -23 -3 -32 -10z"/>
<path d="M2831 4686 c-38 -46 25 -111 69 -71 25 23 26 47 2 68 -23 21 -56 22
-71 3z"/>
<path d="M3881 4681 c-23 -23 -19 -46 10 -62 14 -7 23 -5 39 11 24 24 23 38
-7 57 -19 13 -24 12 -42 -6z"/>
<path d="M2412 4678 c-28 -28 -3 -88 37 -88 21 0 51 30 51 52 0 36 -62 62 -88
36z"/>
<path d="M3560 4682 c-50 -18 -30 -97 22 -87 26 5 39 23 36 49 -4 23 -38 46
-58 38z"/>
<path d="M917 4674 c-14 -15 -6 -43 14 -49 23 -8 41 9 36 35 -2 16 -38 26 -50
14z"/>
<path d="M1781 4665 c-38 -49 13 -106 58 -64 20 19 20 39 -1 66 -11 14 -46 13
-57 -2z"/>
<path d="M3041 4663 c-26 -18 -27 -55 -2 -77 17 -16 23 -16 48 -4 46 22 42 78
-7 91 -10 3 -28 -2 -39 -10z"/>
<path d="M2210 4640 c-31 -31 -25 -57 18 -79 19 -10 26 -8 46 13 30 29 25 63
-11 77 -32 12 -30 12 -53 -11z"/>
<path d="M4243 4649 c-33 -12 -28 -48 8 -61 20 -8 39 9 39 33 0 25 -22 38 -47
28z"/>
<path d="M3233 4618 c-19 -25 -21 -46 -7 -67 21 -29 60 -27 80 4 15 23 15 27
0 50 -18 27 -57 34 -73 13z"/>
<path d="M2022 4595 c-29 -21 -34 -53 -11 -76 10 -10 26 -19 34 -19 22 0 57
39 51 57 -3 8 -6 18 -6 22 0 4 -11 13 -24 19 -18 8 -28 7 -44 -3z"/>
<path d="M1307 4583 c-26 -26 12 -80 47 -67 21 8 30 42 16 59 -13 15 -51 20
-63 8z"/>
<path d="M3741 4581 c-7 -5 -13 -21 -13 -36 0 -47 52 -60 77 -20 28 43 -19 84
-64 56z"/>
<path d="M1576 4558 c-13 -19 -14 -25 -2 -43 19 -29 62 -32 76 -5 9 17 8 26
-5 46 -19 30 -49 31 -69 2z"/>
<path d="M1028 4559 c-39 -22 -8 -81 31 -59 25 13 27 33 5 54 -8 9 -16 16 -17
16 -1 0 -10 -5 -19 -11z"/>
<path d="M3426 4557 c-38 -28 -23 -87 23 -87 50 0 72 44 40 79 -23 24 -38 26
-63 8z"/>
<path d="M4077 4550 c-29 -42 17 -86 52 -51 19 19 19 61 1 61 -5 0 -15 3 -23
6 -9 3 -21 -4 -30 -16z"/>
<path d="M2597 4548 c-51 -18 -45 -89 9 -102 18 -5 32 -2 45 10 45 41 3 111
-54 92z"/>
<path d="M2790 4552 c-41 -12 -52 -68 -20 -97 39 -35 98 6 84 59 -6 25 -40 46
-64 38z"/>
<path d="M4611 4551 c-15 -10 -6 -51 12 -51 22 0 39 17 35 36 -4 21 -26 28
-47 15z"/>
<path d="M2408 4529 c-40 -15 -47 -58 -13 -86 33 -29 40 -29 70 2 30 29 31 35
4 69 -23 29 -23 29 -61 15z"/>
<path d="M2963 4529 c-12 -4 -25 -19 -29 -33 -5 -23 9 -65 24 -67 4 0 15 -2
24 -4 25 -5 58 23 58 49 0 43 -38 70 -77 55z"/>
<path d="M1828 4519 c-22 -12 -24 -62 -4 -78 46 -38 111 25 71 69 -20 22 -41
25 -67 9z"/>
<path d="M2203 4474 c-15 -24 -15 -29 -2 -53 29 -52 99 -32 99 29 0 52 -67 69
-97 24z"/>
<path d="M3122 4480 c-19 -30 -15 -68 9 -80 30 -17 62 -8 78 21 13 24 13 29
-2 53 -21 32 -66 35 -85 6z"/>
<path d="M710 4475 c-10 -12 -10 -18 0 -30 17 -20 37 -19 49 3 18 34 -24 57
-49 27z"/>
<path d="M3600 4470 c-34 -34 -17 -80 29 -80 47 0 70 46 40 79 -25 26 -43 27
-69 1z"/>
<path d="M4433 4474 c-15 -39 38 -67 60 -32 8 12 7 21 -2 32 -17 21 -50 20
-58 0z"/>
<path d="M3922 4468 c-27 -27 -7 -78 29 -78 21 0 49 26 49 45 0 35 -53 58 -78
33z"/>
<path d="M1410 4457 c-32 -16 -38 -57 -12 -74 48 -29 95 29 56 68 -16 16 -23
17 -44 6z"/>
<path d="M1128 4439 c-26 -15 -23 -58 5 -68 16 -7 27 -4 41 10 17 15 18 22 8
44 -12 27 -26 31 -54 14z"/>
<path d="M2036 4434 c-34 -34 -9 -94 39 -94 25 0 55 33 55 61 0 41 -64 63 -94
33z"/>
<path d="M3287 4424 c-37 -70 55 -117 97 -51 18 28 -12 71 -51 75 -26 3 -34
-2 -46 -24z"/>
<path d="M1646 4424 c-20 -20 -20 -48 0 -68 32 -33 84 -8 84 39 0 40 -55 59
-84 29z"/>
<path d="M4274 4412 c-21 -14 -23 -40 -3 -58 17 -15 22 -16 44 -4 28 15 30 22
15 51 -11 19 -36 25 -56 11z"/>
<path d="M2714 4397 c-25 -14 -34 -27 -34 -54 0 -29 33 -63 57 -58 10 2 21 4
25 4 16 2 38 34 38 55 0 23 -31 58 -54 62 -7 1 -21 -3 -32 -9z"/>
<path d="M2533 4385 c-24 -27 -26 -62 -4 -84 48 -48 123 -4 99 58 -5 14 -15
29 -21 33 -19 12 -61 8 -74 -7z"/>
<path d="M2873 4388 c-44 -21 -37 -99 10 -112 70 -18 108 82 42 112 -14 7 -27
12 -28 11 -1 0 -12 -5 -24 -11z"/>
<path d="M830 4375 c-7 -8 -9 -23 -5 -35 8 -25 53 -28 62 -4 13 35 -34 67 -57
39z"/>
<path d="M3460 4370 c-34 -34 -20 -81 27 -95 26 -7 63 24 63 53 0 48 -57 75
-90 42z"/>
<path d="M3759 4363 c-13 -34 -6 -50 26 -65 21 -9 28 -8 45 7 39 35 20 85 -32
85 -22 0 -31 -6 -39 -27z"/>
<path d="M1873 4372 c-24 -15 -26 -59 -4 -81 32 -32 66 -27 89 14 24 45 -40
96 -85 67z"/>
<path d="M2372 4364 c-27 -19 -29 -64 -4 -87 58 -53 137 28 82 83 -24 24 -48
25 -78 4z"/>
<path d="M3017 4352 c-37 -40 -9 -102 46 -102 28 0 57 32 57 62 0 25 -36 58
-63 58 -13 0 -31 -8 -40 -18z"/>
<path d="M2228 4338 c-52 -18 -44 -101 11 -111 65 -13 102 77 44 106 -20 10
-36 12 -55 5z"/>
<path d="M4092 4333 c-10 -19 0 -57 17 -68 33 -20 80 30 61 65 -14 26 -65 27
-78 3z"/>
<path d="M1500 4333 c-22 -5 -42 -41 -35 -64 14 -44 73 -48 92 -6 17 37 -18
79 -57 70z"/>
<path d="M1228 4319 c-39 -22 -12 -79 37 -79 23 0 40 43 26 69 -13 23 -36 26
-63 10z"/>
<path d="M3166 4308 c-21 -30 -20 -50 4 -76 38 -41 100 -16 100 40 0 55 -73
81 -104 36z"/>
<path d="M3630 4303 c-39 -16 -45 -58 -13 -95 23 -26 68 -12 82 26 8 21 -5 66
-20 66 -4 0 -13 2 -21 4 -7 3 -20 2 -28 -1z"/>
<path d="M1710 4280 c-48 -48 19 -120 72 -77 25 20 29 56 7 78 -24 24 -54 24
-79 -1z"/>
<path d="M2075 4288 c-26 -15 -35 -28 -35 -55 0 -27 35 -62 58 -58 9 2 20 4
24 4 16 2 38 34 38 55 0 45 -47 75 -85 54z"/>
<path d="M945 4266 c-12 -17 -13 -23 -2 -40 18 -26 42 -28 63 -5 15 17 15 21
1 42 -19 29 -44 30 -62 3z"/>
<path d="M3350 4282 c-69 -23 -63 -122 8 -122 26 0 62 33 62 56 0 38 -40 76
-70 66z"/>
<path d="M3945 4278 c-28 -15 -27 -14 -30 -43 -2 -18 4 -30 20 -41 29 -19 58
-11 72 19 19 41 -24 85 -62 65z"/>
<path d="M531 4266 c-15 -18 -4 -46 18 -46 27 0 42 20 30 42 -12 21 -32 23
-48 4z"/>
<path d="M1933 4229 c-44 -16 -51 -71 -12 -101 27 -23 41 -23 69 0 54 44 8
125 -57 101z"/>
<path d="M3462 4204 c-26 -18 -30 -65 -6 -88 41 -42 113 1 98 58 -11 44 -53
58 -92 30z"/>
<path d="M3773 4207 c-44 -19 -41 -81 4 -98 36 -14 73 12 73 50 0 43 -38 66
-77 48z"/>
<path d="M1322 4198 c-18 -18 -15 -53 6 -71 26 -24 49 -21 68 8 24 36 6 75
-34 75 -15 0 -33 -5 -40 -12z"/>
<path d="M1571 4194 c-28 -20 -32 -50 -9 -80 16 -20 26 -24 46 -19 49 12 61
56 26 96 -17 19 -38 20 -63 3z"/>
<path d="M662 4178 c-26 -26 1 -65 38 -53 16 5 20 14 18 33 -3 30 -35 41 -56
20z"/>
<path d="M1060 4160 c-23 -43 17 -83 60 -60 22 12 27 49 8 68 -19 19 -56 14
-68 -8z"/>
<path d="M1772 4135 c-23 -29 -19 -59 11 -80 29 -21 53 -19 78 6 15 15 19 28
14 47 -13 55 -70 69 -103 27z"/>
<path d="M3604 4137 c-25 -14 -34 -27 -34 -54 0 -35 35 -65 68 -57 52 12 69
65 32 99 -26 23 -41 26 -66 12z"/>
<path d="M795 4094 c-19 -20 -19 -38 1 -58 19 -19 25 -20 48 -3 24 17 17 58
-11 68 -16 6 -27 3 -38 -7z"/>
<path d="M1433 4085 c-44 -31 -31 -84 25 -98 25 -6 62 25 62 53 0 42 -53 69
-87 45z"/>
<path d="M1194 4070 c-33 -13 -37 -48 -9 -75 28 -29 58 -24 74 12 9 20 9 30
-4 49 -16 25 -27 28 -61 14z"/>
<path d="M1657 4066 c-19 -15 -36 -56 -30 -74 6 -15 52 -39 71 -36 6 1 16 2
20 3 5 0 14 13 21 28 13 29 -1 82 -23 84 -6 0 -18 2 -27 4 -8 1 -22 -3 -32 -9z"/>
<path d="M371 4032 c-7 -13 -6 -23 1 -30 26 -26 64 -2 47 30 -5 10 -16 18 -24
18 -8 0 -19 -8 -24 -18z"/>
<path d="M926 4004 c-33 -32 -13 -74 35 -74 26 0 39 15 39 45 0 18 -28 45 -45
45 -7 0 -21 -7 -29 -16z"/>
<path d="M512 3968 c-14 -19 4 -58 26 -58 30 0 46 24 32 49 -12 23 -42 28 -58
9z"/>
<path d="M1313 3970 c-44 -18 -37 -93 11 -102 58 -11 92 63 44 96 -25 18 -25
18 -55 6z"/>
<path d="M1532 3964 c-45 -31 -17 -104 41 -104 28 0 57 32 57 62 0 23 -35 58
-58 58 -10 0 -28 -7 -40 -16z"/>
<path d="M1052 3918 c-28 -28 -3 -88 37 -88 22 0 51 30 51 53 0 38 -61 62 -88
35z"/>
<path d="M656 3895 c-15 -16 -11 -44 8 -57 35 -24 76 14 56 52 -13 24 -43 26
-64 5z"/>
<path d="M1424 3863 c-54 -37 -19 -122 44 -108 65 14 62 107 -3 113 -17 1 -35
-1 -41 -5z"/>
<path d="M1191 3834 c-42 -30 -13 -108 37 -99 9 2 20 4 24 4 15 2 28 41 22 65
-8 33 -54 50 -83 30z"/>
<path d="M794 3813 c-13 -50 30 -80 67 -47 23 21 24 37 3 58 -25 26 -63 20
-70 -11z"/>
<path d="M236 3783 c-9 -21 16 -46 37 -37 9 3 17 17 17 30 0 19 -5 24 -24 24
-13 0 -27 -8 -30 -17z"/>
<path d="M942 3758 c-22 -22 -14 -67 13 -80 50 -22 97 38 59 76 -18 19 -55 21
-72 4z"/>
<path d="M400 3742 c-19 -15 -21 -22 -11 -39 6 -12 18 -20 28 -18 10 2 21 4
26 4 12 2 8 48 -7 60 -10 9 -19 7 -36 -7z"/>
<path d="M1327 3749 c-10 -6 -22 -20 -26 -32 -14 -36 24 -88 58 -82 9 2 19 4
23 4 4 1 15 12 24 26 26 40 -7 96 -56 95 -3 -1 -13 -5 -23 -11z"/>
<path d="M550 3690 c-24 -24 -25 -34 -4 -54 20 -20 33 -20 55 0 20 18 15 45
-12 62 -16 10 -22 9 -39 -8z"/>
<path d="M1110 3702 c-65 -24 -42 -125 25 -108 31 8 54 50 39 73 -15 24 -47
41 -64 35z"/>
<path d="M688 3625 c-9 -21 -8 -28 7 -45 24 -27 56 -22 72 10 10 20 9 27 -4
42 -24 27 -61 23 -75 -7z"/>
<path d="M1250 3628 c-30 -11 -40 -25 -40 -60 0 -28 31 -58 60 -58 26 1 53 28
56 57 5 46 -34 77 -76 61z"/>
<path d="M845 3583 c-15 -35 -14 -51 6 -69 42 -37 105 19 73 65 -19 26 -69 29
-79 4z"/>
<path d="M996 3528 c-23 -32 -20 -55 9 -74 34 -22 70 -12 83 25 9 24 7 33 -9
50 -26 27 -64 27 -83 -1z"/>
<path d="M137 3533 c-13 -12 -7 -41 10 -47 21 -8 48 17 40 38 -6 16 -38 22
-50 9z"/>
<path d="M290 3491 c-7 -15 -6 -23 6 -35 8 -9 19 -16 24 -16 16 0 41 33 36 47
-3 8 -6 17 -6 19 0 14 -51 1 -60 -15z"/>
<path d="M1150 3480 c-26 -26 -25 -50 0 -78 52 -55 135 13 89 72 -25 31 -61
34 -89 6z"/>
<path d="M450 3465 c-27 -32 23 -82 55 -55 20 16 19 56 -1 64 -25 10 -41 7
-54 -9z"/>
<path d="M612 3438 c-32 -32 4 -87 48 -73 25 8 37 50 20 70 -15 18 -51 20 -68
3z"/>
<path d="M766 3399 c-16 -23 -12 -47 12 -66 25 -20 50 -15 68 12 15 23 15 27
0 50 -20 31 -59 33 -80 4z"/>
<path d="M926 3368 c-23 -32 -20 -55 9 -74 34 -22 71 -12 83 23 20 61 -56 102
-92 51z"/>
<path d="M1096 3349 c-35 -27 -35 -73 -1 -95 54 -35 116 19 85 73 -22 38 -53
46 -84 22z"/>
<path d="M60 3255 c-10 -12 -10 -18 0 -30 25 -30 67 -7 49 27 -12 22 -32 23
-49 3z"/>
<path d="M221 3242 c-11 -21 3 -52 24 -52 26 0 46 29 35 51 -13 24 -46 25 -59
1z"/>
<path d="M381 3228 c-10 -29 -4 -46 19 -53 39 -12 68 20 50 56 -15 27 -58 25
-69 -3z"/>
<path d="M557 3235 c-21 -15 -22 -58 -3 -74 20 -17 63 -3 70 21 11 44 -33 78
-67 53z"/>
<path d="M706 3209 c-31 -45 22 -96 69 -65 23 15 28 47 11 74 -12 20 -64 14
-80 -9z"/>
<path d="M888 3216 c-17 -9 -23 -20 -23 -46 0 -65 83 -77 99 -15 12 49 -31 83
-76 61z"/>
<path d="M1056 3211 c-10 -4 -24 -18 -31 -31 -11 -20 -11 -29 1 -52 8 -16 21
-29 29 -29 8 -1 21 -2 28 -3 20 -4 57 36 57 60 0 12 -12 32 -26 43 -29 23 -30
23 -58 12z"/>
<path d="M1030 3060 c-14 -3 -31 -18 -40 -32 -13 -25 -13 -29 6 -54 38 -51
104 -32 104 30 0 40 -32 66 -70 56z"/>
<path d="M837 3032 c-38 -42 -3 -99 52 -87 36 8 50 43 32 81 -13 30 -60 33
-84 6z"/>
<path d="M676 3024 c-19 -18 -21 -55 -4 -72 29 -29 88 -5 88 36 0 39 -57 64
-84 36z"/>
<path d="M519 3017 c-27 -21 -30 -45 -7 -67 26 -23 29 -24 51 -7 27 19 29 54
4 72 -25 18 -27 18 -48 2z"/>
<path d="M342 2994 c-20 -36 13 -73 51 -59 37 15 23 75 -18 75 -13 0 -28 -7
-33 -16z"/>
<path d="M183 2988 c-14 -19 -10 -39 8 -51 24 -15 49 -1 49 27 0 32 -38 48
-57 24z"/>
<path d="M20 2975 c-18 -21 -5 -45 25 -45 27 0 35 26 13 48 -16 16 -23 15 -38
-3z"/>
<path d="M999 2903 c-27 -7 -42 -45 -30 -76 19 -51 81 -55 105 -8 16 31 6 65
-23 80 -20 11 -25 12 -52 4z"/>
<path d="M3853 2889 c-12 -4 -25 -19 -29 -33 -5 -23 9 -65 24 -67 4 0 15 -2
24 -4 21 -4 58 30 58 53 0 39 -40 65 -77 51z"/>
<path d="M4034 2887 c-35 -19 -40 -41 -18 -81 13 -21 56 -25 79 -6 45 38 -9
116 -61 87z"/>
<path d="M4220 2882 c-40 -33 -29 -77 21 -95 21 -7 55 16 62 42 11 45 -47 82
-83 53z"/>
<path d="M4406 2874 c-33 -33 -10 -84 38 -84 20 0 46 28 46 50 0 10 -7 26 -16
34 -8 9 -24 16 -34 16 -10 0 -26 -7 -34 -16z"/>
<path d="M4614 2880 c-29 -11 -37 -39 -19 -66 17 -26 52 -25 72 1 25 35 -12
81 -53 65z"/>
<path d="M4793 2873 c-19 -7 -16 -60 3 -67 33 -13 54 -6 60 19 10 41 -22 65
-63 48z"/>
<path d="M4978 2855 c-12 -27 2 -55 28 -55 14 0 44 27 44 40 0 14 -30 40 -46
40 -8 0 -19 -11 -26 -25z"/>
<path d="M5183 2865 c-31 -22 -19 -55 18 -55 24 0 29 4 29 24 0 35 -21 49 -47
31z"/>
<path d="M815 2850 c-41 -45 30 -115 76 -74 21 19 24 45 9 75 -14 25 -62 25
-85 -1z"/>
<path d="M5364 2856 c-10 -26 4 -48 28 -44 17 2 23 10 23 28 0 18 -6 26 -23
28 -13 2 -25 -3 -28 -12z"/>
<path d="M654 2815 c-30 -46 9 -95 57 -72 36 18 39 69 4 85 -36 17 -42 15 -61
-13z"/>
<path d="M490 2785 c-17 -20 -5 -62 20 -70 44 -14 80 41 48 73 -17 17 -53 15
-68 -3z"/>
<path d="M336 2754 c-31 -30 -13 -67 30 -62 35 4 47 44 18 65 -23 17 -29 16
-48 -3z"/>
<path d="M989 2743 c-37 -9 -41 -83 -6 -105 44 -28 107 15 91 64 -12 39 -41
53 -85 41z"/>
<path d="M3843 2742 c-6 -4 -16 -20 -22 -35 -9 -23 -7 -31 9 -47 23 -23 49
-26 72 -7 51 38 -5 123 -59 89z"/>
<path d="M4017 2732 c-10 -10 -17 -28 -17 -39 0 -23 30 -53 53 -53 21 0 57 35
57 55 0 21 -36 55 -58 55 -11 0 -26 -8 -35 -18z"/>
<path d="M4210 2730 c-32 -32 -9 -90 36 -90 69 0 71 108 2 110 -10 0 -27 -9
-38 -20z"/>
<path d="M4406 2724 c-20 -19 -21 -58 -2 -73 25 -21 69 -9 80 21 17 50 -42 89
-78 52z"/>
<path d="M169 2714 c-16 -20 -1 -48 29 -52 16 -2 23 3 28 22 3 14 3 30 -1 35
-9 16 -41 13 -56 -5z"/>
<path d="M4599 2709 c-24 -24 -24 -41 0 -63 23 -21 56 -14 71 15 24 44 -35 84
-71 48z"/>
<path d="M4789 2699 c-18 -18 -19 -23 -6 -42 28 -43 83 -26 75 24 -5 33 -44
43 -69 18z"/>
<path d="M4986 2704 c-28 -27 -12 -64 26 -64 26 0 45 45 27 62 -21 19 -36 20
-53 2z"/>
<path d="M5163 2699 c-16 -16 5 -59 27 -59 20 0 37 19 34 38 -1 6 -2 17 -3 22
-1 14 -44 13 -58 -1z"/>
<path d="M5356 2694 c-6 -16 9 -44 25 -44 4 0 15 7 24 16 12 12 13 19 4 30
-16 19 -45 18 -53 -2z"/>
<path d="M13 2693 c-16 -6 -17 -35 -1 -51 14 -14 48 2 48 23 0 17 -30 34 -47
28z"/>
<path d="M824 2682 c-21 -14 -26 -52 -10 -77 11 -17 23 -23 46 -21 35 2 50 19
50 54 0 42 -51 68 -86 44z"/>
<path d="M661 2619 c-41 -44 13 -108 64 -75 12 8 22 23 21 33 -4 52 -53 76
-85 42z"/>
<path d="M4233 2600 c-56 -22 -46 -102 12 -102 37 0 67 35 56 64 -11 31 -42
48 -68 38z"/>
<path d="M3838 2588 c-31 -24 -23 -82 13 -93 50 -16 87 31 63 78 -16 29 -49
36 -76 15z"/>
<path d="M4015 2580 c-23 -25 -13 -67 20 -82 31 -14 75 12 75 45 -1 53 -59 76
-95 37z"/>
<path d="M4411 2583 c-27 -18 -27 -55 -1 -78 38 -35 96 17 71 63 -14 26 -45
33 -70 15z"/>
<path d="M992 2574 c-45 -31 -17 -104 41 -104 28 0 57 32 57 62 0 23 -35 58
-58 58 -10 0 -28 -7 -40 -16z"/>
<path d="M4598 2571 c-20 -25 -15 -54 11 -68 44 -21 79 14 57 58 -14 28 -50
33 -68 10z"/>
<path d="M506 2564 c-30 -30 -13 -74 29 -74 44 0 63 60 26 80 -27 14 -37 13
-55 -6z"/>
<path d="M4798 2569 c-22 -12 -23 -52 -3 -69 12 -10 21 -10 40 -2 31 14 34 56
6 72 -23 12 -22 12 -43 -1z"/>
<path d="M4966 2558 c-15 -21 -9 -49 12 -62 16 -10 50 6 55 24 11 41 -44 71
-67 38z"/>
<path d="M5167 2564 c-15 -16 -7 -53 14 -59 30 -10 58 19 43 43 -12 18 -45 28
-57 16z"/>
<path d="M5356 2533 c-9 -21 16 -46 37 -37 9 3 17 17 17 30 0 19 -5 24 -24 24
-13 0 -27 -8 -30 -17z"/>
<path d="M340 2500 c-8 -14 -7 -25 2 -40 16 -25 40 -26 62 -1 14 15 15 24 6
40 -14 27 -56 28 -70 1z"/>
<path d="M836 2494 c-34 -34 -2 -98 45 -91 67 10 62 107 -6 107 -13 0 -31 -7
-39 -16z"/>
<path d="M197 2459 c-22 -13 -22 -42 0 -60 17 -14 20 -14 41 3 32 27 -4 77
-41 57z"/>
<path d="M3832 2439 c-31 -32 -10 -89 32 -89 52 0 78 53 45 89 -25 27 -53 27
-77 0z"/>
<path d="M4017 2442 c-34 -37 -11 -92 38 -92 23 0 55 32 55 55 0 18 -39 55
-59 55 -10 0 -25 -8 -34 -18z"/>
<path d="M4210 2440 c-32 -32 -9 -90 36 -90 13 0 32 9 43 21 33 35 2 88 -51
89 -5 0 -17 -9 -28 -20z"/>
<path d="M4411 2444 c-26 -19 -27 -55 -3 -77 25 -22 45 -21 67 3 38 42 -17
106 -64 74z"/>
<path d="M4594 2439 c-20 -22 -10 -57 19 -68 44 -17 78 29 51 68 -17 23 -49
23 -70 0z"/>
<path d="M690 2420 c-23 -23 -25 -39 -7 -64 29 -39 87 -17 87 34 0 19 -7 30
-25 38 -33 15 -32 15 -55 -8z"/>
<path d="M1029 2426 c-46 -23 -42 -88 7 -106 52 -20 101 38 70 84 -18 29 -47
37 -77 22z"/>
<path d="M4769 2421 c-23 -19 -23 -21 -8 -48 11 -21 21 -27 39 -25 46 7 58 50
22 80 -21 16 -26 15 -53 -7z"/>
<path d="M32 2397 c-15 -21 -7 -42 17 -45 13 -2 27 2 32 9 17 28 -29 62 -49
36z"/>
<path d="M4951 2397 c-17 -17 -13 -55 7 -66 21 -11 62 11 62 33 0 29 -49 53
-69 33z"/>
<path d="M5157 2379 c-23 -13 -22 -46 2 -59 22 -11 51 9 51 35 0 21 -32 35
-53 24z"/>
<path d="M536 2341 c-13 -14 -14 -24 -7 -45 14 -35 54 -36 78 0 16 26 16 27
-6 45 -29 24 -44 24 -65 0z"/>
<path d="M5342 2351 c-21 -13 -10 -46 16 -49 27 -4 40 22 22 43 -14 17 -20 18
-38 6z"/>
<path d="M871 2314 c-19 -24 -19 -28 -5 -55 11 -22 22 -29 43 -29 48 0 72 46
45 88 -20 30 -58 28 -83 -4z"/>
<path d="M3852 2307 c-24 -11 -38 -47 -28 -72 8 -22 53 -37 76 -25 57 31 12
124 -48 97z"/>
<path d="M4407 2302 c-21 -23 -22 -50 -1 -73 13 -14 21 -15 45 -7 40 14 50 55
19 80 -28 23 -43 23 -63 0z"/>
<path d="M4012 2298 c-22 -29 -23 -56 -1 -76 49 -46 111 8 79 69 -12 22 -62
26 -78 7z"/>
<path d="M4208 2293 c-15 -19 -16 -26 -5 -59 16 -45 87 -33 100 16 12 48 -62
82 -95 43z"/>
<path d="M4565 2280 c-24 -27 -13 -68 22 -76 33 -9 57 6 61 38 6 50 -49 76
-83 38z"/>
<path d="M1073 2280 c-33 -14 -43 -40 -28 -76 17 -41 57 -50 92 -20 21 18 24
28 19 53 -4 19 -16 35 -32 42 -14 6 -26 11 -27 10 -1 0 -12 -4 -24 -9z"/>
<path d="M382 2264 c-20 -36 13 -73 51 -58 39 14 24 74 -18 74 -13 0 -28 -7
-33 -16z"/>
<path d="M741 2234 c-26 -18 -27 -55 -3 -76 23 -20 48 -19 69 4 37 41 -21 103
-66 72z"/>
<path d="M4745 2233 c-40 -40 8 -99 54 -67 25 18 28 59 4 69 -32 14 -43 14
-58 -2z"/>
<path d="M240 2192 c-22 -17 -22 -18 -3 -41 17 -20 22 -22 41 -12 26 14 28 33
6 55 -19 20 -17 20 -44 -2z"/>
<path d="M4900 2175 c-26 -32 13 -81 48 -59 34 22 22 74 -18 74 -10 0 -23 -7
-30 -15z"/>
<path d="M5097 2174 c-12 -12 -8 -41 7 -53 22 -18 58 4 54 32 -3 22 -45 36
-61 21z"/>
<path d="M925 2150 c-41 -46 29 -116 75 -75 22 20 27 64 8 83 -19 19 -63 14
-83 -8z"/>
<path d="M4212 2161 c-43 -28 -27 -94 24 -99 36 -4 57 16 57 54 0 36 -51 64
-81 45z"/>
<path d="M4366 2144 c-34 -34 -9 -94 39 -94 25 0 55 33 55 61 0 41 -64 63 -94
33z"/>
<path d="M5293 2133 c-7 -30 13 -46 39 -32 27 15 23 46 -7 51 -20 4 -26 1 -32
-19z"/>
<path d="M595 2133 c-22 -22 -15 -55 15 -70 20 -10 27 -9 42 4 19 17 24 58 8
68 -22 14 -51 13 -65 -2z"/>
<path d="M1142 2142 c-30 -5 -55 -43 -47 -75 9 -33 55 -53 85 -37 60 32 30
122 -38 112z"/>
<path d="M93 2123 c-20 -7 -15 -41 6 -52 25 -14 50 13 35 37 -12 18 -24 23
-41 15z"/>
<path d="M4514 2102 c-29 -20 -25 -65 8 -83 43 -23 87 20 66 65 -11 26 -49 35
-74 18z"/>
<path d="M800 2045 c-17 -20 -16 -65 1 -76 25 -15 57 -10 73 13 20 29 20 34
-4 58 -24 24 -53 26 -70 5z"/>
<path d="M450 2030 c-13 -23 2 -60 25 -60 30 0 45 13 45 40 0 42 -51 56 -70
20z"/>
<path d="M4684 2040 c-38 -15 -41 -61 -5 -79 22 -12 57 3 63 27 9 34 -25 64
-58 52z"/>
<path d="M4861 2021 c-34 -34 -9 -76 37 -64 35 9 36 55 1 73 -14 8 -23 6 -38
-9z"/>
<path d="M4162 1999 c-32 -33 -3 -99 41 -97 27 2 67 36 67 58 0 54 -71 80
-108 39z"/>
<path d="M996 1994 c-9 -8 -16 -24 -16 -35 0 -24 34 -59 58 -59 41 0 69 69 40
98 -17 17 -64 15 -82 -4z"/>
<path d="M1205 2003 c-44 -12 -56 -56 -26 -95 24 -30 55 -30 87 1 20 19 21 26
12 52 -8 24 -38 52 -50 48 -2 -1 -12 -4 -23 -6z"/>
<path d="M4312 1997 c-30 -14 -38 -51 -18 -82 19 -29 42 -32 74 -9 52 36 2
118 -56 91z"/>
<path d="M5251 1981 c-21 -14 -4 -53 22 -49 16 2 22 10 22 28 0 26 -20 36 -44
21z"/>
<path d="M330 1952 c-21 -7 -28 -21 -23 -42 8 -29 34 -33 57 -10 20 20 20 20
1 39 -11 10 -27 16 -35 13z"/>
<path d="M688 1943 c-34 -8 -35 -74 -1 -87 24 -10 65 21 61 46 -4 25 -36 47
-60 41z"/>
<path d="M4454 1930 c-29 -11 -37 -26 -30 -55 9 -37 42 -50 72 -30 47 31 10
105 -42 85z"/>
<path d="M5038 1932 c-10 -2 -18 -7 -18 -12 0 -5 -3 -15 -6 -23 -7 -19 28 -40
50 -31 19 7 21 48 4 61 -7 5 -21 8 -30 5z"/>
<path d="M899 1877 c-54 -27 -19 -114 36 -89 25 11 42 52 30 71 -13 23 -41 30
-66 18z"/>
<path d="M4093 1882 c-6 -4 -17 -20 -22 -35 -9 -24 -8 -31 14 -53 30 -30 58
-31 85 -2 35 38 11 98 -39 98 -14 0 -31 -4 -38 -8z"/>
<path d="M1263 1860 c-9 -10 -18 -27 -19 -36 -7 -44 42 -80 82 -62 49 22 48
90 -1 108 -36 14 -43 13 -62 -10z"/>
<path d="M4796 1864 c-19 -18 -19 -20 -6 -45 6 -11 21 -19 35 -19 20 0 45 24
45 44 0 10 -32 36 -45 36 -7 0 -21 -7 -29 -16z"/>
<path d="M171 1841 c-8 -14 -7 -22 4 -31 17 -14 54 -5 51 13 -6 39 -39 49 -55
18z"/>
<path d="M1080 1845 c-29 -35 -3 -94 43 -95 20 0 57 34 57 53 0 7 -7 23 -16
35 -18 26 -65 30 -84 7z"/>
<path d="M4224 1842 c-6 -4 -16 -17 -23 -29 -9 -18 -7 -26 12 -49 19 -22 29
-26 51 -20 15 3 32 17 38 31 21 46 -36 95 -78 67z"/>
<path d="M540 1815 c-20 -24 2 -66 32 -61 13 3 27 5 31 5 5 1 7 16 5 34 -2 26
-8 33 -29 35 -14 2 -31 -4 -39 -13z"/>
<path d="M4583 1817 c-29 -13 -34 -29 -19 -58 16 -34 51 -36 71 -5 28 42 -7
84 -52 63z"/>
<path d="M3991 1748 c-49 -52 24 -128 83 -85 10 7 18 27 18 45 2 57 -62 83
-101 40z"/>
<path d="M4346 1754 c-19 -18 -21 -55 -4 -72 19 -19 66 -15 78 7 14 28 13 38
-10 61 -24 24 -43 25 -64 4z"/>
<path d="M1362 1744 c-46 -32 -23 -106 33 -106 38 0 67 35 59 71 -4 14 -9 29
-13 33 -13 14 -60 16 -79 2z"/>
<path d="M766 1734 c-17 -44 5 -75 48 -68 33 5 48 48 24 72 -17 17 -65 15 -72
-4z"/>
<path d="M5153 1723 c-19 -7 -15 -41 5 -52 20 -11 42 3 42 26 0 15 -30 32 -47
26z"/>
<path d="M422 1711 c-22 -14 -10 -56 17 -59 37 -6 52 26 25 52 -18 18 -24 19
-42 7z"/>
<path d="M985 1700 c-24 -27 -13 -68 22 -76 33 -9 57 6 61 38 6 50 -49 76 -83
38z"/>
<path d="M1182 1708 c-32 -39 -6 -98 42 -98 43 0 66 52 40 89 -17 24 -65 29
-82 9z"/>
<path d="M4116 1694 c-23 -22 -20 -60 6 -78 29 -21 51 -20 71 2 34 37 11 92
-38 92 -13 0 -31 -7 -39 -16z"/>
<path d="M4921 1687 c-14 -14 -14 -40 0 -54 15 -15 47 -4 55 19 10 33 -31 59
-55 35z"/>
<path d="M4698 1659 c-39 -22 -11 -83 30 -68 29 11 37 32 22 58 -12 23 -26 26
-52 10z"/>
<path d="M3910 1652 c-37 -13 -51 -62 -27 -94 32 -41 107 -16 107 36 0 43 -40
72 -80 58z"/>
<path d="M1480 1643 c-36 -15 -51 -63 -27 -94 42 -54 120 -13 103 55 -4 17
-47 50 -59 45 -1 0 -9 -3 -17 -6z"/>
<path d="M4462 1628 c-7 -7 -12 -21 -12 -33 0 -44 60 -63 80 -26 14 27 13 37
-6 55 -18 19 -45 21 -62 4z"/>
<path d="M661 1611 c-25 -25 -17 -57 14 -63 31 -6 44 2 47 31 2 14 -5 28 -19
38 -19 13 -23 13 -42 -6z"/>
<path d="M292 1598 c-17 -17 -15 -36 6 -46 23 -13 42 -4 42 18 0 25 -33 43
-48 28z"/>
<path d="M4238 1599 c-28 -16 -23 -67 7 -81 35 -16 74 5 70 38 -5 47 -39 66
-77 43z"/>
<path d="M1296 1574 c-17 -16 -21 -51 -8 -70 4 -6 17 -16 28 -22 18 -10 27 -8
48 9 30 23 33 45 10 77 -18 26 -56 29 -78 6z"/>
<path d="M898 1566 c-28 -21 -27 -61 2 -76 38 -20 80 22 60 59 -12 24 -42 31
-62 17z"/>
<path d="M4008 1569 c-22 -13 -24 -62 -2 -83 30 -31 80 -12 89 33 9 47 -43 76
-87 50z"/>
<path d="M1120 1557 c-30 -15 -38 -52 -15 -77 30 -33 88 -6 83 38 -4 36 -36
55 -68 39z"/>
<path d="M3798 1548 c-16 -6 -31 -21 -37 -39 -8 -25 -7 -33 13 -55 18 -22 27
-25 53 -20 39 9 61 46 45 80 -15 34 -41 45 -74 34z"/>
<path d="M1574 1525 c-27 -27 -25 -58 5 -88 24 -25 64 -16 87 18 13 20 14 28
2 51 -19 41 -63 49 -94 19z"/>
<path d="M558 1493 c-32 -8 -33 -55 -1 -67 18 -7 30 -1 43 23 11 22 -15 50
-42 44z"/>
<path d="M5023 1473 c-7 -2 -13 -16 -13 -29 0 -19 5 -24 25 -24 30 0 43 24 25
45 -13 16 -17 17 -37 8z"/>
<path d="M1420 1450 c-34 -34 -9 -90 40 -90 38 0 66 41 49 73 -23 42 -57 49
-89 17z"/>
<path d="M4110 1450 c-35 -35 -21 -75 29 -85 29 -5 64 40 51 66 -10 17 -40 39
-54 39 -3 0 -15 -9 -26 -20z"/>
<path d="M4336 1454 c-19 -19 -20 -35 -3 -56 19 -24 44 -28 61 -9 22 24 20 58
-3 71 -27 14 -37 13 -55 -6z"/>
<path d="M4560 1455 c-26 -32 13 -81 48 -59 34 22 22 74 -18 74 -10 0 -23 -7
-30 -15z"/>
<path d="M4787 1464 c-27 -27 20 -77 49 -53 23 19 13 53 -16 57 -14 2 -29 0
-33 -4z"/>
<path d="M3659 1447 c-38 -29 -33 -79 10 -101 35 -17 54 -11 73 22 33 56 -32
118 -83 79z"/>
<path d="M3873 1434 c-15 -24 -15 -29 -2 -53 29 -52 99 -32 99 29 0 52 -67 69
-97 24z"/>
<path d="M1698 1433 c-26 -31 -28 -51 -7 -77 23 -30 54 -33 87 -10 26 18 28
50 6 82 -19 27 -65 29 -86 5z"/>
<path d="M790 1415 c-26 -32 13 -81 48 -59 34 22 22 74 -18 74 -10 0 -23 -7
-30 -15z"/>
<path d="M1231 1401 c-17 -31 -13 -49 14 -67 45 -29 95 10 71 57 -16 32 -70
39 -85 10z"/>
<path d="M1026 1391 c-34 -38 14 -94 56 -67 24 15 23 62 -1 76 -27 14 -35 13
-55 -9z"/>
<path d="M3522 1357 c-27 -28 -28 -58 -3 -81 29 -26 59 -27 81 -4 36 39 20 91
-30 103 -19 4 -31 0 -48 -18z"/>
<path d="M436 1355 c-21 -21 -20 -32 2 -43 23 -12 42 -4 42 18 0 29 -25 44
-44 25z"/>
<path d="M1830 1350 c-24 -24 -25 -48 -4 -78 28 -40 88 -24 107 30 8 24 -29
68 -59 68 -13 0 -33 -9 -44 -20z"/>
<path d="M1557 1342 c-21 -23 -21 -41 -1 -70 29 -41 94 -19 94 33 0 50 -60 73
-93 37z"/>
<path d="M3763 1349 c-25 -9 -42 -38 -35 -59 15 -48 69 -61 97 -24 18 23 18
27 4 58 -13 28 -35 36 -66 25z"/>
<path d="M3961 1311 c-16 -29 -14 -46 9 -66 41 -37 102 17 73 64 -16 25 -69
26 -82 2z"/>
<path d="M3400 1302 c-22 -8 -39 -34 -39 -57 0 -52 65 -77 103 -39 42 42 -8
118 -64 96z"/>
<path d="M4189 1293 c-16 -18 -13 -54 5 -65 34 -22 81 9 70 46 -12 38 -51 49
-75 19z"/>
<path d="M1391 1283 c-21 -14 -27 -48 -13 -69 21 -31 75 -22 87 16 14 44 -36
80 -74 53z"/>
<path d="M1968 1278 c-23 -29 -23 -53 2 -78 39 -39 100 -14 100 42 0 53 -69
77 -102 36z"/>
<path d="M697 1275 c-19 -18 -11 -52 13 -58 35 -9 59 32 34 58 -19 19 -29 19
-47 0z"/>
<path d="M4423 1280 c-25 -10 -26 -13 -17 -47 9 -34 61 -32 70 2 4 15 1 32 -6
40 -14 17 -16 17 -47 5z"/>
<path d="M1720 1257 c-35 -18 -36 -76 -1 -94 18 -8 30 -9 45 -1 41 22 47 57
16 88 -23 23 -27 24 -60 7z"/>
<path d="M4640 1252 c-19 -16 -19 -19 -5 -39 25 -35 69 -15 58 27 -7 27 -29
32 -53 12z"/>
<path d="M1180 1240 c-25 -25 -25 -35 0 -60 14 -14 25 -17 41 -11 34 12 43 47
19 71 -25 25 -35 25 -60 0z"/>
<path d="M3597 1242 c-35 -38 -11 -91 40 -92 23 0 53 34 53 61 0 21 -32 49
-57 49 -11 0 -27 -8 -36 -18z"/>
<path d="M940 1230 c-8 -14 -7 -25 2 -40 28 -44 90 -5 66 43 -12 23 -55 22
-68 -3z"/>
<path d="M2135 1238 c-26 -15 -35 -28 -35 -54 0 -52 60 -79 98 -43 35 32 28
75 -15 98 -26 13 -23 13 -48 -1z"/>
<path d="M3249 1243 c-9 -2 -22 -15 -30 -29 -11 -22 -11 -30 2 -52 18 -33 68
-42 93 -17 24 24 20 71 -6 89 -23 16 -30 17 -59 9z"/>
<path d="M4867 1239 c-20 -12 -22 -32 -3 -48 18 -15 46 -4 46 19 0 26 -22 40
-43 29z"/>
<path d="M3092 1203 c-22 -8 -40 -56 -31 -81 19 -50 101 -46 114 5 6 24 -16
72 -33 74 -4 0 -14 2 -22 3 -8 2 -21 1 -28 -1z"/>
<path d="M3806 1189 c-20 -30 4 -78 40 -79 34 -1 60 49 42 83 -13 25 -63 22
-82 -4z"/>
<path d="M2282 1193 c-7 -3 -17 -16 -22 -29 -14 -35 6 -72 43 -80 26 -5 35 -2
53 19 46 53 -7 117 -74 90z"/>
<path d="M1873 1175 c-31 -22 -35 -52 -9 -82 21 -25 25 -26 54 -14 41 17 48
56 16 88 -27 27 -33 28 -61 8z"/>
<path d="M1541 1166 c-21 -25 -9 -69 21 -80 50 -17 89 42 52 78 -19 20 -58 21
-73 2z"/>
<path d="M2920 1160 c-43 -33 -14 -115 38 -105 9 2 22 4 28 4 6 1 17 14 24 31
10 25 10 34 -3 54 -20 30 -58 38 -87 16z"/>
<path d="M3437 1162 c-34 -37 -11 -92 38 -92 50 0 73 60 37 93 -24 22 -55 21
-75 -1z"/>
<path d="M2424 1145 c-35 -54 28 -116 82 -80 24 16 28 24 24 60 -4 48 -78 62
-106 20z"/>
<path d="M4030 1150 c-24 -24 -15 -59 18 -71 16 -6 27 -3 42 13 25 27 25 33 0
58 -25 25 -35 25 -60 0z"/>
<path d="M2602 1144 c-26 -18 -30 -65 -6 -88 39 -40 104 -10 100 46 -4 51 -51
73 -94 42z"/>
<path d="M2760 1140 c-39 -39 -14 -100 42 -100 53 0 79 74 36 104 -30 21 -54
20 -78 -4z"/>
<path d="M594 1125 c-9 -24 3 -44 25 -42 22 1 37 29 26 47 -9 15 -45 12 -51
-5z"/>
<path d="M1346 1104 c-19 -18 -20 -28 -6 -55 12 -21 50 -25 68 -7 18 18 14 56
-7 68 -27 14 -37 13 -55 -6z"/>
<path d="M2026 1098 c-31 -43 -9 -88 42 -88 51 0 72 65 30 94 -31 22 -54 20
-72 -6z"/>
<path d="M3273 1094 c-15 -15 -22 -31 -19 -40 3 -9 6 -19 6 -24 0 -4 13 -13
29 -20 35 -14 67 1 74 37 10 55 -50 87 -90 47z"/>
<path d="M4240 1101 c-13 -25 -4 -48 22 -57 25 -8 59 22 51 44 -14 36 -56 43
-73 13z"/>
<path d="M3646 1094 c-33 -33 -10 -84 38 -84 20 0 46 28 46 50 0 24 -26 50
-50 50 -10 0 -26 -7 -34 -16z"/>
<path d="M878 1089 c-24 -13 -23 -46 1 -59 15 -7 23 -6 35 6 9 8 16 19 16 24
0 7 -28 41 -33 40 -1 0 -10 -5 -19 -11z"/>
<path d="M1116 1068 c-20 -28 -4 -58 29 -58 31 0 50 32 35 60 -14 26 -45 25
-64 -2z"/>
<path d="M1711 1066 c-21 -25 -9 -69 21 -80 50 -17 89 42 52 78 -19 20 -58 21
-73 2z"/>
<path d="M4473 1069 c-14 -5 -23 -17 -23 -29 0 -24 39 -43 58 -28 31 26 3 72
-35 57z"/>
<path d="M2201 1049 c-33 -36 -10 -89 39 -89 50 0 74 57 38 90 -28 26 -52 25
-77 -1z"/>
<path d="M3112 1057 c-30 -14 -38 -51 -18 -81 26 -40 96 -20 96 28 0 43 -41
70 -78 53z"/>
<path d="M2400 1028 c-31 -12 -41 -27 -35 -58 14 -79 115 -54 106 26 -2 23
-45 42 -71 32z"/>
<path d="M3852 1028 c-30 -30 0 -85 41 -74 31 7 46 48 27 71 -15 18 -51 20
-68 3z"/>
<path d="M2928 1018 c-25 -21 -29 -57 -7 -79 25 -25 54 -24 80 2 31 31 8 89
-35 89 -12 0 -29 -6 -38 -12z"/>
<path d="M3483 1019 c-53 -20 -30 -104 25 -94 31 5 43 22 40 54 -4 31 -36 52
-65 40z"/>
<path d="M4680 1016 c-18 -22 -5 -48 22 -44 17 2 23 10 23 28 0 29 -26 38 -45
16z"/>
<path d="M2562 1000 c-11 -11 -19 -27 -17 -37 2 -10 4 -24 4 -31 1 -7 13 -17
27 -23 37 -14 74 11 74 50 0 49 -53 74 -88 41z"/>
<path d="M2744 995 c-13 -13 -24 -28 -24 -33 0 -19 40 -59 57 -58 50 3 74 50
45 86 -26 32 -50 33 -78 5z"/>
<path d="M1523 981 c-31 -50 31 -96 70 -53 13 15 14 22 4 42 -16 32 -57 38
-74 11z"/>
<path d="M1896 984 c-31 -30 -9 -84 34 -84 24 0 50 26 50 50 0 24 -26 50 -50
50 -10 0 -26 -7 -34 -16z"/>
<path d="M4056 951 c-15 -17 -15 -20 3 -42 16 -21 22 -22 45 -11 28 12 34 40
14 60 -17 17 -42 15 -62 -7z"/>
<path d="M3295 948 c-27 -15 -34 -27 -29 -52 4 -22 30 -46 48 -46 16 1 42 23
48 40 13 36 -34 76 -67 58z"/>
<path d="M792 931 c-19 -12 -11 -45 12 -49 25 -5 39 12 31 37 -7 22 -21 26
-43 12z"/>
<path d="M1300 920 c-8 -15 -6 -24 10 -40 25 -25 32 -25 53 -2 23 25 23 27 8
45 -19 23 -58 21 -71 -3z"/>
<path d="M2092 924 c-30 -21 -29 -59 3 -80 23 -15 27 -15 50 0 32 21 33 59 3
80 -12 9 -25 16 -28 16 -3 0 -16 -7 -28 -16z"/>
<path d="M3662 918 c-32 -32 4 -87 48 -73 25 8 37 50 20 70 -15 18 -51 20 -68
3z"/>
<path d="M1054 905 c-14 -37 26 -69 53 -42 22 22 8 57 -23 57 -14 0 -27 -7
-30 -15z"/>
<path d="M1728 889 c-23 -13 -23 -51 0 -72 15 -13 22 -14 42 -4 28 14 33 44
12 70 -17 19 -29 21 -54 6z"/>
<path d="M3093 892 c-6 -4 -14 -19 -18 -34 -6 -21 -2 -30 20 -44 36 -24 75 -6
75 34 0 15 -5 33 -12 40 -13 13 -47 16 -65 4z"/>
<path d="M4263 889 c-11 -11 -6 -49 7 -49 5 0 15 -3 23 -6 22 -8 42 32 26 52
-14 17 -41 18 -56 3z"/>
<path d="M2280 871 c-14 -27 -13 -47 6 -65 30 -31 84 -9 84 34 0 45 -69 69
-90 31z"/>
<path d="M2492 854 c-31 -22 -26 -63 10 -83 24 -14 28 -14 47 3 27 25 27 61
-1 80 -28 20 -28 20 -56 0z"/>
<path d="M2884 845 c-23 -35 -3 -75 37 -75 50 0 70 56 31 88 -25 19 -50 14
-68 -13z"/>
<path d="M2691 841 c-25 -25 -26 -44 -5 -65 31 -32 84 -14 84 29 -1 47 -47 68
-79 36z"/>
<path d="M3458 823 c-16 -19 -10 -54 11 -67 18 -12 59 5 65 26 12 49 -43 78
-76 41z"/>
<path d="M3852 816 c-9 -20 -8 -27 5 -37 40 -33 87 -3 63 41 -15 28 -54 26
-68 -4z"/>
<path d="M4484 827 c-17 -9 -20 -17 -13 -34 9 -26 13 -27 40 -13 22 12 24 20
7 43 -11 13 -17 14 -34 4z"/>
<path d="M1512 808 c-22 -22 -14 -57 13 -64 29 -7 55 10 55 37 0 30 -47 48
-68 27z"/>
<path d="M1933 805 c-25 -18 -23 -53 4 -72 23 -17 30 -16 53 7 21 21 18 46 -8
68 -20 15 -23 15 -49 -3z"/>
<path d="M3270 772 c-56 -19 -26 -105 30 -87 21 7 36 46 25 64 -10 17 -39 29
-55 23z"/>
<path d="M1272 758 c-26 -26 -8 -58 33 -58 19 0 29 38 15 55 -15 18 -32 19
-48 3z"/>
<path d="M1007 749 c-20 -12 -22 -32 -3 -48 18 -15 46 -4 46 19 0 26 -22 40
-43 29z"/>
<path d="M2142 738 c-32 -32 4 -87 48 -73 25 8 37 50 20 70 -15 18 -51 20 -68
3z"/>
<path d="M4051 736 c-18 -22 4 -58 32 -54 31 4 32 62 1 66 -11 2 -26 -4 -33
-12z"/>
<path d="M3042 714 c-26 -18 -29 -59 -4 -69 31 -14 42 -14 58 2 20 20 14 52
-11 69 -18 12 -24 11 -43 -2z"/>
<path d="M3634 704 c-12 -46 44 -72 70 -31 15 24 -3 51 -37 55 -21 3 -28 -2
-33 -24z"/>
<path d="M1733 703 c-20 -7 -15 -51 6 -63 25 -13 48 -4 56 21 11 35 -23 58
-62 42z"/>
<path d="M2360 690 c-9 -17 -8 -26 5 -46 19 -29 38 -31 65 -4 28 28 13 64 -28
68 -23 2 -34 -2 -42 -18z"/>
<path d="M2593 679 c-40 -40 10 -95 56 -62 27 19 27 48 -1 67 -29 20 -29 20
-55 -5z"/>
<path d="M2811 683 c-10 -11 -11 -23 -5 -42 17 -47 84 -36 84 13 0 43 -50 62
-79 29z"/>
<path d="M4245 639 c-5 -14 -2 -25 6 -30 24 -15 44 -5 44 21 0 34 -40 41 -50
9z"/>
<path d="M3420 630 c-16 -16 -18 -25 -10 -40 14 -25 23 -30 47 -24 36 10 37
56 2 74 -14 8 -23 6 -39 -10z"/>
<path d="M1497 625 c-19 -18 -11 -52 13 -58 17 -4 50 20 50 36 0 9 -30 37 -40
37 -5 0 -15 -7 -23 -15z"/>
<path d="M1960 615 c-26 -32 13 -81 48 -59 22 14 27 41 12 59 -16 19 -44 19
-60 0z"/>
<path d="M3821 606 c-15 -18 2 -56 24 -56 26 0 46 29 35 51 -13 22 -43 25 -59
5z"/>
<path d="M1226 573 c-9 -21 16 -46 37 -37 9 3 17 17 17 30 0 19 -5 24 -24 24
-13 0 -27 -8 -30 -17z"/>
<path d="M3182 568 c-17 -17 -15 -55 4 -62 29 -11 44 -6 56 19 19 41 -28 75
-60 43z"/>
<path d="M2200 555 c-26 -32 13 -81 48 -59 22 14 27 41 12 59 -16 19 -44 19
-60 0z"/>
<path d="M2951 534 c-26 -18 -25 -51 2 -68 39 -25 75 35 39 67 -17 15 -20 15
-41 1z"/>
<path d="M2458 529 c-35 -20 -8 -86 30 -72 34 13 41 42 16 67 -18 19 -23 19
-46 5z"/>
<path d="M1742 521 c-20 -13 -11 -56 13 -59 35 -4 51 13 37 42 -12 27 -27 32
-50 17z"/>
<path d="M2702 518 c-36 -36 12 -94 51 -60 24 22 21 47 -8 60 -31 15 -28 15
-43 0z"/>
<path d="M3578 494 c-10 -22 -10 -28 6 -40 13 -9 24 -10 37 -3 25 13 24 45 0
59 -27 14 -30 13 -43 -16z"/>
<path d="M4004 495 c-8 -20 2 -45 18 -45 26 0 40 17 33 39 -7 24 -43 29 -51 6z"/>
<path d="M1482 448 c-17 -17 -15 -36 6 -47 13 -7 23 -6 30 1 17 17 15 45 -4
52 -20 8 -18 8 -32 -6z"/>
<path d="M1990 430 c-12 -22 -4 -46 17 -54 32 -13 60 42 31 61 -23 14 -38 12
-48 -7z"/>
<path d="M3327 429 c-17 -10 -15 -48 4 -60 16 -9 47 0 53 17 13 33 -24 61 -57
43z"/>
<path d="M2254 365 c-8 -31 2 -45 31 -45 27 0 44 35 26 53 -22 22 -50 18 -57
-8z"/>
<path d="M3077 379 c-31 -18 -15 -66 21 -65 14 1 32 24 32 43 0 19 -33 33 -53
22z"/>
<path d="M3747 383 c-4 -3 -7 -17 -7 -30 0 -18 6 -23 24 -23 13 0 27 7 30 16
11 28 -27 57 -47 37z"/>
<path d="M2530 339 c-14 -24 2 -49 31 -49 28 0 43 35 23 54 -21 22 -41 20 -54
-5z"/>
<path d="M2807 345 c-21 -20 -10 -55 17 -55 21 0 46 17 46 31 0 10 -30 39 -40
39 -5 0 -15 -7 -23 -15z"/>
<path d="M1753 343 c-18 -6 -16 -50 1 -56 21 -8 48 16 41 35 -7 19 -24 27 -42
21z"/>
<path d="M3464 275 c-4 -9 0 -23 9 -32 21 -21 49 -9 45 19 -4 28 -45 38 -54
13z"/>
<path d="M2021 242 c-7 -13 -6 -23 1 -30 19 -19 45 -14 51 10 10 37 -34 53
-52 20z"/>
<path d="M3203 223 c-17 -6 -16 -38 0 -52 21 -17 56 12 41 35 -12 20 -23 25
-41 17z"/>
<path d="M2323 203 c-18 -6 -16 -50 2 -57 14 -5 45 18 45 34 0 13 -32 28 -47
23z"/>
<path d="M2910 175 c-11 -13 -11 -19 3 -32 21 -21 49 -9 45 19 -4 28 -30 35
-48 13z"/>
<path d="M2622 171 c-20 -12 -10 -46 15 -49 14 -2 23 3 28 17 11 35 -12 52
-43 32z"/>
</g>
</svg>
